<?xml version="1.0" encoding="utf-8"?>
<!-- Generator: Adobe Illustrator 19.0.0, SVG Export Plug-In . SVG Version: 6.00 Build 0)  -->
<svg version="1.1" id="レイヤー_1" xmlns="http://www.w3.org/2000/svg" xmlns:xlink="http://www.w3.org/1999/xlink" x="0px"
	 y="0px" viewBox="-209 980 54 42" style="enable-background:new -209 980 54 42;" xml:space="preserve">
<style type="text/css">
	.st0{fill:#B8DEF3;}
	.st1{fill:none;}
</style>
<g>
	<path class="st0" d="M-181.8,1005.7L-181.8,1005.7h-1.2v-0.1c-0.2-0.6-0.3-1.8-0.3-2.4c0-1.1-0.4-1.6-1.1-1.6h-1.3v4.1h-1.1v-9.6h2
		c1.3,0,2.6,0.3,2.6,2.7v0.1c0,1-0.4,1.7-1.1,2c0.7,0.2,0.8,0.8,0.9,1.8c0,0.7,0.1,1.4,0.2,2.1
		C-182,1005.2-181.9,1005.5-181.8,1005.7 M-185.7,1000.4h1.2c0.3,0,1.3,0,1.3-1.5v-0.1c0-1.5-0.9-1.5-1.4-1.5h-1L-185.7,1000.4
		L-185.7,1000.4z"/>
	<polygon class="st0" points="-177.4,1005.7 -181.6,1005.7 -181.6,996.1 -177.4,996.1 -177.4,997.3 -180.5,997.3 -180.5,1000.1 
		-177.6,1000.1 -177.6,1001.3 -180.5,1001.3 -180.5,1004.5 -177.4,1004.5 	"/>
	<path class="st0" d="M-155.2,999.1l-4.8-3.7l-2.4,1.8l-14.6-11l2.4-1.8l-4.9-3.7l-2.5,1.9l-2.4-1.8l-4.9,3.7l2.4,1.8l-14.6,11
		l-2.4-1.8l-4.9,3.7l2.4,1.8l-2.4,1.8l4.9,3.7l2.4-1.8l14.6,11l-2.4,1.8l4.9,3.7l2.4-1.8l2.4,1.8l4.9-3.7l-2.4-1.8l14.6-11l2.4,1.8
		l4.9-3.7l-2.4-1.8L-155.2,999.1z M-172.9,1001.2c0,2.3-0.5,3.2-1.6,3.2h-1.3v-7.2h1.3c1.3,0,1.5,1.2,1.6,3.4
		C-172.9,1000.9-172.9,1001.1-172.9,1001.2z M-191.5,997.1c-0.2,0.4-0.3,0.9-0.3,1.5c0,0.8,0.1,1.7,1,2.2c0.3,0.2,0.7,0.4,1.1,0.5
		c0.2,0.1,0.3,0.1,0.4,0.2c0.1,0,0.2,0.1,0.3,0.1c0.6,0.3,0.9,0.4,0.9,1.6c0,0.9-0.5,1.5-1.3,1.5c-1,0-1.3-0.5-1.3-1.8v-0.4h-1.1
		v0.3c0,0.5,0,1.1,0.2,1.6c0,0.1,0.1,0.2,0.2,0.3l-5-3.7L-191.5,997.1z M-190,1005.8c0.1,0,0.3,0.1,0.4,0.1c1.5,0,2.5-1.1,2.5-2.9
		c0-1.3-0.3-1.9-1.8-2.6l-1.2-0.6c-0.4-0.2-0.6-0.6-0.6-1.1c0-0.8,0.1-1.5,1.2-1.5c0.8,0,1.1,0.7,1.1,1.4c0,0,0,0,0,0.1v0.1v0.1h1.1
		v-0.1v-0.1v-0.1c0-1.6-0.8-2.6-2.3-2.6c-0.1,0-0.2,0-0.3,0l8-6l8.4,6.3c-0.3-0.1-0.6-0.2-1-0.2h-2.3v9.6h2.5c0.4,0,0.8-0.1,1.1-0.3
		l-8.8,6.5L-190,1005.8z M-172.9,1005.1c0.9-0.9,1.1-2.6,1.1-4.2c0-0.1,0-0.2,0-0.2c0-0.1,0-0.2,0-0.2c0-1.1-0.1-2.4-0.8-3.3
		l5.1,3.8L-172.9,1005.1z"/>
</g>
<rect x="-209" y="980" class="st1" width="54" height="42"/>
</svg>
