<?xml version="1.0" encoding="utf-8"?>
<!-- Generator: Adobe Illustrator 21.0.0, SVG Export Plug-In . SVG Version: 6.00 Build 0)  -->
<svg version="1.1" id="レイヤー_1" xmlns="http://www.w3.org/2000/svg" xmlns:xlink="http://www.w3.org/1999/xlink" x="0px"
	 y="0px" viewBox="0 0 330 42" style="enable-background:new 0 0 330 42;" xml:space="preserve">
<style type="text/css">
	.st0{fill:#B8DEF3;}
	.st1{fill:none;}
	.st2{fill:#0F0F0F;}
</style>
<path class="st0" d="M32.2,25.7L32.2,25.7H31v-0.1c-0.2-0.6-0.3-1.8-0.3-2.4c0-1.1-0.4-1.6-1.1-1.6h-1.3v4.1h-1.1v-9.6h2
	c1.3,0,2.6,0.3,2.6,2.7v0.1c0,1-0.4,1.7-1.1,2c0.7,0.2,0.8,0.8,0.9,1.8c0,0.7,0.1,1.4,0.2,2.1C32,25.2,32.1,25.5,32.2,25.7
	 M28.3,20.4h1.2c0.3,0,1.3,0,1.3-1.5v-0.1c0-1.5-0.9-1.5-1.4-1.5h-1v3.1H28.3z"/>
<polygon class="st0" points="36.6,25.7 32.4,25.7 32.4,16.1 36.6,16.1 36.6,17.3 33.5,17.3 33.5,20.1 36.4,20.1 36.4,21.3 
	33.5,21.3 33.5,24.5 36.6,24.5 "/>
<path class="st0" d="M58.8,19.1L54,15.4l-2.4,1.8L37,6.2l2.4-1.8l-4.9-3.7L32,2.6l-2.4-1.8l-4.9,3.7l2.4,1.8l-14.6,11l-2.4-1.8
	l-4.9,3.7L7.6,21l-2.4,1.8l4.9,3.7l2.4-1.8l14.6,11l-2.4,1.8l4.9,3.7l2.4-1.8l2.4,1.8l4.9-3.7l-2.4-1.8l14.6-11l2.4,1.8l4.9-3.7
	L56.4,21L58.8,19.1z M41.1,21.2c0,2.3-0.5,3.2-1.6,3.2h-1.3v-7.2h1.3c1.3,0,1.5,1.2,1.6,3.4C41.1,20.9,41.1,21.1,41.1,21.2z
	 M22.5,17.1c-0.2,0.4-0.3,0.9-0.3,1.5c0,0.8,0.1,1.7,1,2.2c0.3,0.2,0.7,0.4,1.1,0.5c0.2,0.1,0.3,0.1,0.4,0.2c0.1,0,0.2,0.1,0.3,0.1
	c0.6,0.3,0.9,0.4,0.9,1.6c0,0.9-0.5,1.5-1.3,1.5c-1,0-1.3-0.5-1.3-1.8v-0.4h-1.1v0.3c0,0.5,0,1.1,0.2,1.6c0,0.1,0.1,0.2,0.2,0.3
	l-5-3.7L22.5,17.1z M24,25.8c0.1,0,0.3,0.1,0.4,0.1c1.5,0,2.5-1.1,2.5-2.9c0-1.3-0.3-1.9-1.8-2.6l-1.2-0.6c-0.4-0.2-0.6-0.6-0.6-1.1
	c0-0.8,0.1-1.5,1.2-1.5c0.8,0,1.1,0.7,1.1,1.4c0,0,0,0,0,0.1v0.1v0.1h1.1v-0.1v-0.1v-0.1c0-1.6-0.8-2.6-2.3-2.6c-0.1,0-0.2,0-0.3,0
	l8-6l8.4,6.3c-0.3-0.1-0.6-0.2-1-0.2h-2.3v9.6h2.5c0.4,0,0.8-0.1,1.1-0.3L32,31.9L24,25.8z M41.1,25.1c0.9-0.9,1.1-2.6,1.1-4.2
	c0-0.1,0-0.2,0-0.2c0-0.1,0-0.2,0-0.2c0-1.1-0.1-2.4-0.8-3.3l5.1,3.8L41.1,25.1z"/>
<rect y="0" class="st1" width="330" height="42"/>
<g>
	<path class="st2" d="M77.5,14.1c0,0.5-0.1,1-0.3,1.4s-0.4,0.7-0.8,1c-0.3,0.3-0.7,0.5-1.2,0.6s-1,0.2-1.6,0.2s-1.1,0-1.6-0.1
		s-0.9-0.2-1.3-0.4v-1.4c0.2,0.1,0.4,0.2,0.6,0.2c0.2,0.1,0.5,0.2,0.7,0.2s0.5,0.1,0.8,0.2c0.3,0,0.5,0.1,0.8,0.1
		c0.8,0,1.4-0.2,1.8-0.5s0.6-0.8,0.6-1.3c0-0.3,0-0.5-0.1-0.7s-0.2-0.4-0.4-0.6c-0.2-0.2-0.4-0.3-0.8-0.5c-0.3-0.2-0.7-0.3-1.2-0.5
		s-0.9-0.4-1.2-0.6c-0.3-0.2-0.6-0.5-0.8-0.7c-0.2-0.3-0.4-0.6-0.5-0.9c-0.1-0.3-0.2-0.7-0.2-1.2s0.1-0.9,0.2-1.2
		c0.2-0.4,0.4-0.7,0.7-0.9c0.3-0.2,0.7-0.4,1.1-0.6c0.4-0.1,0.9-0.2,1.4-0.2c0.6,0,1.2,0.1,1.7,0.2c0.6,0,1.1,0.1,1.4,0.3l-0.5,1.2
		c-0.3-0.2-0.7-0.3-1.2-0.4c-0.4-0.1-0.9-0.2-1.3-0.2c-0.6,0-1.1,0.1-1.5,0.4c-0.3,0.3-0.5,0.7-0.5,1.2c0,0.3,0,0.6,0.1,0.8
		s0.2,0.4,0.4,0.6c0.2,0.2,0.4,0.3,0.7,0.5c0.3,0.2,0.7,0.3,1.1,0.5c0.5,0.2,0.9,0.4,1.2,0.6c0.4,0.2,0.7,0.4,0.9,0.7
		c0.2,0.2,0.4,0.5,0.5,0.9C77.5,13.3,77.5,13.7,77.5,14.1z"/>
	<path class="st2" d="M85.2,17.2L85,16h-0.1c-0.1,0.2-0.3,0.4-0.5,0.6S84,16.9,83.8,17s-0.4,0.2-0.7,0.2c-0.2,0.1-0.5,0.1-0.7,0.1
		c-0.5,0-0.9-0.1-1.2-0.2c-0.4-0.1-0.7-0.3-0.9-0.6c-0.2-0.3-0.4-0.6-0.5-1s-0.2-0.9-0.2-1.4V8.6H81v5.5c0,0.7,0.1,1.2,0.4,1.5
		s0.7,0.5,1.3,0.5c0.4,0,0.8-0.1,1.1-0.2c0.3-0.1,0.5-0.3,0.7-0.6s0.3-0.6,0.4-1S85,13.5,85,13V8.6h1.4v8.6H85.2z"/>
	<path class="st2" d="M99.3,17.2v-5.5c0-0.7-0.1-1.2-0.4-1.5s-0.7-0.5-1.2-0.5c-0.4,0-0.7,0.1-1,0.2c-0.3,0.1-0.5,0.3-0.7,0.5
		s-0.3,0.5-0.4,0.9s-0.1,0.8-0.1,1.2v4.7h-1.4v-5.5c0-0.7-0.1-1.2-0.4-1.5S93,9.7,92.5,9.7c-0.4,0-0.7,0.1-1,0.2
		c-0.3,0.1-0.5,0.3-0.7,0.6s-0.3,0.6-0.4,1s-0.1,0.8-0.1,1.3v4.4h-1.4V8.6h1.2l0.2,1.2h0.1c0.1-0.2,0.3-0.4,0.4-0.6s0.4-0.3,0.6-0.4
		c0.2-0.1,0.4-0.2,0.7-0.2c0.2-0.1,0.5-0.1,0.7-0.1c0.6,0,1.1,0.1,1.6,0.3c0.4,0.2,0.7,0.6,0.9,1.1h0.1c0.1-0.2,0.3-0.5,0.5-0.6
		c0.2-0.2,0.4-0.3,0.6-0.4s0.5-0.2,0.7-0.3s0.5-0.1,0.8-0.1c0.9,0,1.6,0.2,2.1,0.7s0.7,1.3,0.7,2.4v5.6H99.3z"/>
	<path class="st2" d="M103.3,6.3c0-0.3,0.1-0.5,0.2-0.7c0.2-0.1,0.4-0.2,0.6-0.2c0.1,0,0.2,0,0.3,0.1c0.1,0,0.2,0.1,0.3,0.2
		c0.1,0.1,0.1,0.2,0.2,0.3c0,0.1,0.1,0.2,0.1,0.4c0,0.3-0.1,0.5-0.2,0.7s-0.4,0.2-0.6,0.2s-0.4-0.1-0.6-0.2
		C103.4,6.8,103.3,6.6,103.3,6.3z M104.8,17.2h-1.4V8.6h1.4V17.2z"/>
	<path class="st2" d="M108.8,12.7l1.1-1.3l2.3-2.8h1.6l-3.1,3.7l3.3,4.9h-1.6l-2.6-3.9l-0.9,0.6v3.3h-1.4V5h1.4v5.6L108.8,12.7
		L108.8,12.7z"/>
	<path class="st2" d="M122.5,12.9c0,0.7-0.1,1.3-0.3,1.9c-0.2,0.6-0.4,1-0.8,1.4c-0.3,0.4-0.7,0.7-1.2,0.9c-0.5,0.2-1,0.3-1.6,0.3
		c-0.5,0-1-0.1-1.5-0.3c-0.5-0.2-0.8-0.5-1.2-0.9c-0.3-0.4-0.6-0.8-0.8-1.4c-0.2-0.6-0.3-1.2-0.3-1.9s0.1-1.3,0.3-1.9
		c0.2-0.5,0.4-1,0.7-1.4c0.3-0.4,0.7-0.7,1.2-0.9s1-0.3,1.6-0.3c0.5,0,1,0.1,1.5,0.3s0.8,0.5,1.2,0.9c0.3,0.4,0.6,0.8,0.8,1.4
		C122.4,11.5,122.5,12.2,122.5,12.9z M116.5,12.9c0,1.1,0.2,1.9,0.5,2.5c0.4,0.5,0.9,0.8,1.7,0.8c0.8,0,1.4-0.3,1.7-0.8
		c0.4-0.5,0.5-1.4,0.5-2.5s-0.2-1.9-0.5-2.4c-0.4-0.5-0.9-0.8-1.7-0.8c-0.8,0-1.4,0.3-1.7,0.8S116.5,11.8,116.5,12.9z"/>
	<path class="st2" d="M130.5,12.5v4.7H129V5.8h2.8c1.4,0,2.4,0.3,3.1,0.8c0.7,0.5,1,1.3,1,2.4c0,0.5-0.1,0.8-0.2,1.2
		c-0.1,0.3-0.3,0.6-0.5,0.9s-0.5,0.4-0.7,0.6c-0.3,0.2-0.5,0.3-0.8,0.4l3.1,5.1H135l-2.7-4.7C132.3,12.5,130.5,12.5,130.5,12.5z
		 M130.5,11.2h1.3c0.5,0,0.9,0,1.2-0.1s0.6-0.2,0.8-0.4s0.4-0.4,0.5-0.7s0.1-0.6,0.1-0.9c0-0.4-0.1-0.7-0.2-1
		c-0.1-0.3-0.3-0.5-0.5-0.6c-0.2-0.2-0.5-0.3-0.8-0.4C132.6,7,132.2,7,131.8,7h-1.2v4.2H130.5z"/>
	<path class="st2" d="M141.7,17.3c-0.6,0-1.1-0.1-1.6-0.3c-0.5-0.2-0.9-0.5-1.2-0.8c-0.3-0.4-0.6-0.8-0.8-1.4s-0.3-1.2-0.3-1.9
		s0.1-1.3,0.3-1.9c0.2-0.6,0.4-1,0.7-1.4s0.7-0.7,1.1-0.9c0.4-0.2,0.9-0.3,1.4-0.3s1,0.1,1.4,0.3s0.8,0.4,1,0.8
		c0.3,0.3,0.5,0.7,0.7,1.2s0.2,1,0.2,1.6v0.9h-5.4c0,1,0.2,1.7,0.6,2.2c0.4,0.5,1,0.7,1.8,0.7c0.3,0,0.5,0,0.7,0s0.4-0.1,0.7-0.1
		c0.2,0,0.4-0.1,0.6-0.2c0.2-0.1,0.4-0.2,0.6-0.3v1.3c-0.2,0.1-0.4,0.2-0.6,0.3c-0.2,0.1-0.4,0.1-0.6,0.2s-0.4,0.1-0.7,0.1
		S142,17.3,141.7,17.3z M141.3,9.6c-0.6,0-1.1,0.2-1.4,0.6c-0.3,0.4-0.5,1-0.6,1.8h3.8c0-0.4,0-0.7-0.1-1s-0.2-0.5-0.3-0.8
		c-0.1-0.2-0.3-0.4-0.6-0.5C141.9,9.7,141.7,9.6,141.3,9.6z"/>
	<path class="st2" d="M152,14.8c0,0.4-0.1,0.8-0.2,1.1c-0.2,0.3-0.4,0.6-0.7,0.8s-0.6,0.4-1,0.5s-0.9,0.2-1.4,0.2
		c-0.6,0-1.1,0-1.5-0.1s-0.8-0.2-1.1-0.4v-1.3c0.2,0.1,0.3,0.2,0.5,0.2c0.2,0.1,0.4,0.2,0.6,0.2c0.2,0.1,0.4,0.1,0.7,0.2
		c0.2,0,0.5,0.1,0.7,0.1c0.3,0,0.6,0,0.9-0.1c0.2-0.1,0.4-0.1,0.6-0.2c0.1-0.1,0.3-0.2,0.3-0.4c0.1-0.2,0.1-0.3,0.1-0.5
		s0-0.3-0.1-0.4c-0.1-0.1-0.1-0.3-0.3-0.4c-0.1-0.1-0.3-0.3-0.6-0.4c-0.2-0.1-0.5-0.3-0.9-0.4c-0.4-0.2-0.7-0.3-1-0.5
		s-0.6-0.3-0.8-0.5s-0.4-0.4-0.5-0.7s-0.2-0.6-0.2-0.9c0-0.4,0.1-0.7,0.2-1c0.1-0.3,0.3-0.5,0.6-0.7s0.6-0.3,0.9-0.4
		c0.4-0.1,0.8-0.1,1.2-0.1c0.5,0,1,0.1,1.4,0.2c0.4,0.1,0.8,0.3,1.2,0.4l-0.5,1.1c-0.3-0.2-0.7-0.3-1-0.4c-0.4-0.1-0.7-0.2-1.1-0.2
		c-0.5,0-0.9,0.1-1.2,0.3s-0.4,0.4-0.4,0.7c0,0.2,0,0.3,0.1,0.5c0.1,0.1,0.2,0.3,0.3,0.4c0.1,0.1,0.3,0.2,0.6,0.4
		c0.2,0.1,0.5,0.3,0.9,0.4c0.4,0.2,0.7,0.3,1,0.5s0.5,0.3,0.8,0.5c0.2,0.2,0.4,0.4,0.5,0.7S152,14.5,152,14.8z"/>
	<path class="st2" d="M161.1,12.9c0,0.7-0.1,1.3-0.3,1.9c-0.2,0.6-0.4,1-0.8,1.4c-0.3,0.4-0.7,0.7-1.2,0.9c-0.5,0.2-1,0.3-1.6,0.3
		c-0.5,0-1-0.1-1.5-0.3c-0.5-0.2-0.8-0.5-1.2-0.9c-0.3-0.4-0.6-0.8-0.8-1.4c-0.2-0.6-0.3-1.2-0.3-1.9s0.1-1.3,0.3-1.9
		c0.2-0.5,0.4-1,0.7-1.4s0.7-0.7,1.2-0.9s1-0.3,1.6-0.3c0.5,0,1,0.1,1.5,0.3s0.8,0.5,1.2,0.9c0.3,0.4,0.6,0.8,0.8,1.4
		C161,11.5,161.1,12.2,161.1,12.9z M155.1,12.9c0,1.1,0.2,1.9,0.5,2.5c0.4,0.5,0.9,0.8,1.7,0.8s1.4-0.3,1.7-0.8
		c0.4-0.5,0.5-1.4,0.5-2.5s-0.2-1.9-0.5-2.4c-0.4-0.5-0.9-0.8-1.7-0.8s-1.4,0.3-1.7,0.8S155.1,11.8,155.1,12.9z"/>
	<path class="st2" d="M168.9,17.2l-0.2-1.1h-0.1c-0.1,0.2-0.3,0.4-0.5,0.6s-0.4,0.3-0.6,0.4c-0.2,0.1-0.4,0.2-0.7,0.2
		s-0.5,0.1-0.7,0.1c-0.5,0-0.9-0.1-1.2-0.2c-0.4-0.1-0.7-0.3-0.9-0.6c-0.2-0.3-0.4-0.6-0.5-1s-0.2-0.9-0.2-1.4V8.6h1.4v5.5
		c0,0.7,0.1,1.2,0.4,1.5c0.3,0.3,0.7,0.5,1.3,0.5c0.4,0,0.8-0.1,1.1-0.2c0.3-0.1,0.5-0.3,0.7-0.6s0.3-0.6,0.4-1
		c0.1-0.4,0.1-0.8,0.1-1.3V8.6h1.4v8.6H168.9z"/>
	<path class="st2" d="M176.4,8.4c0.2,0,0.3,0,0.5,0s0.3,0,0.5,0.1l-0.2,1.3c-0.1,0-0.3,0-0.4-0.1c-0.2,0-0.3,0-0.4,0
		c-0.3,0-0.6,0.1-0.9,0.2s-0.5,0.3-0.7,0.6c-0.2,0.2-0.3,0.5-0.5,0.9c-0.1,0.3-0.2,0.7-0.2,1.2v4.6h-1.4V8.6h1.2l0.2,1.6h0.1
		c0.1-0.2,0.3-0.4,0.4-0.6c0.1-0.2,0.3-0.4,0.5-0.6c0.2-0.2,0.4-0.3,0.6-0.4C175.9,8.5,176.2,8.4,176.4,8.4z"/>
	<path class="st2" d="M182.4,17.3c-0.5,0-1-0.1-1.5-0.2s-0.9-0.4-1.2-0.8c-0.3-0.4-0.6-0.8-0.8-1.4s-0.3-1.2-0.3-2s0.1-1.5,0.3-2.1
		s0.5-1,0.8-1.4s0.8-0.6,1.2-0.8c0.5-0.2,1-0.2,1.5-0.2c0.4,0,0.8,0,1.2,0.1s0.7,0.2,1,0.3l-0.4,1.2c-0.1-0.1-0.3-0.1-0.4-0.2
		c-0.1,0-0.3-0.1-0.5-0.1s-0.3-0.1-0.5-0.1s-0.3,0-0.4,0c-0.8,0-1.4,0.3-1.8,0.8s-0.6,1.3-0.6,2.4s0.2,1.9,0.6,2.4s1,0.8,1.7,0.8
		c0.4,0,0.8,0,1.1-0.1s0.7-0.2,0.9-0.3v1.3c-0.3,0.2-0.6,0.3-0.9,0.3S182.9,17.3,182.4,17.3z"/>
	<path class="st2" d="M189.9,17.3c-0.6,0-1.1-0.1-1.6-0.3s-0.9-0.5-1.2-0.8c-0.3-0.4-0.6-0.8-0.8-1.4s-0.3-1.2-0.3-1.9
		s0.1-1.3,0.3-1.9c0.2-0.6,0.4-1,0.7-1.4s0.7-0.7,1.1-0.9s0.9-0.3,1.4-0.3s1,0.1,1.4,0.3s0.8,0.4,1,0.8s0.5,0.7,0.7,1.2
		s0.2,1,0.2,1.6v0.9h-5.4c0,1,0.2,1.7,0.6,2.2c0.4,0.5,1,0.7,1.8,0.7c0.3,0,0.5,0,0.7,0s0.4-0.1,0.7-0.1c0.2,0,0.4-0.1,0.6-0.2
		c0.2-0.1,0.4-0.2,0.6-0.3v1.3c-0.2,0.1-0.4,0.2-0.6,0.3c-0.2,0.1-0.4,0.1-0.6,0.2s-0.4,0.1-0.7,0.1S190.2,17.3,189.9,17.3z
		 M189.6,9.6c-0.6,0-1.1,0.2-1.4,0.6s-0.5,1-0.6,1.8h3.8c0-0.4,0-0.7-0.1-1s-0.2-0.5-0.3-0.8c-0.1-0.2-0.3-0.4-0.6-0.5
		C190.2,9.7,189.9,9.6,189.6,9.6z"/>
	<path class="st2" d="M200.2,14.8c0,0.4-0.1,0.8-0.2,1.1c-0.2,0.3-0.4,0.6-0.7,0.8s-0.6,0.4-1,0.5s-0.9,0.2-1.4,0.2
		c-0.6,0-1.1,0-1.5-0.1s-0.8-0.2-1.1-0.4v-1.3c0.2,0.1,0.3,0.2,0.5,0.2c0.2,0.1,0.4,0.2,0.6,0.2c0.2,0.1,0.4,0.1,0.7,0.2
		s0.5,0.1,0.7,0.1c0.3,0,0.6,0,0.9-0.1c0.2-0.1,0.4-0.1,0.6-0.2c0.1-0.1,0.3-0.2,0.3-0.4c0.1-0.2,0.1-0.3,0.1-0.5s0-0.3-0.1-0.4
		c-0.1-0.1-0.1-0.3-0.3-0.4c-0.1-0.1-0.3-0.3-0.6-0.4c-0.2-0.1-0.5-0.3-0.9-0.4c-0.4-0.2-0.7-0.3-1-0.5s-0.6-0.3-0.8-0.5
		s-0.4-0.4-0.5-0.7s-0.2-0.6-0.2-0.9c0-0.4,0.1-0.7,0.2-1c0.1-0.3,0.3-0.5,0.6-0.7s0.6-0.3,0.9-0.4c0.4-0.1,0.8-0.1,1.2-0.1
		c0.5,0,1,0.1,1.4,0.2s0.8,0.3,1.2,0.4l-0.5,1.1c-0.3-0.2-0.7-0.3-1-0.4c-0.4-0.1-0.7-0.2-1.1-0.2c-0.5,0-0.9,0.1-1.2,0.3
		s-0.4,0.4-0.4,0.7c0,0.2,0,0.3,0.1,0.5c0.1,0.1,0.2,0.3,0.3,0.4c0.1,0.1,0.3,0.2,0.6,0.4c0.2,0.1,0.5,0.3,0.9,0.4
		c0.4,0.2,0.7,0.3,1,0.5s0.5,0.3,0.8,0.5s0.4,0.4,0.5,0.7S200.2,14.5,200.2,14.8z"/>
	<path class="st2" d="M212.6,17.2h-5.9V5.8h5.9V7h-4.5v3.5h4.2v1.3h-4.2v4.1h4.5V17.2z"/>
	<path class="st2" d="M216.7,12.8L214,8.6h1.6l2,3.2l2-3.2h1.6l-2.8,4.2l2.9,4.4h-1.6l-2.1-3.4l-2.1,3.4h-1.6L216.7,12.8z"/>
	<path class="st2" d="M226.8,17.3c-0.3,0-0.6,0-0.8-0.1s-0.5-0.2-0.7-0.3c-0.2-0.1-0.4-0.2-0.5-0.4c-0.2-0.2-0.3-0.3-0.4-0.5h-0.1
		c0,0.2,0,0.3,0,0.5c0,0.1,0,0.3,0,0.4s0,0.3,0,0.3V21h-1.4V8.6h1.2l0.2,1.2h0.1c0.1-0.2,0.3-0.4,0.4-0.5c0.2-0.2,0.3-0.3,0.5-0.4
		s0.4-0.2,0.7-0.3s0.5-0.1,0.8-0.1c0.5,0,0.9,0.1,1.3,0.3s0.7,0.5,1,0.8c0.3,0.4,0.5,0.8,0.7,1.4c0.2,0.6,0.2,1.2,0.2,1.9
		s-0.1,1.4-0.2,1.9s-0.4,1-0.7,1.4c-0.3,0.4-0.6,0.7-1,0.8C227.7,17.2,227.3,17.3,226.8,17.3z M226.5,9.6c-0.4,0-0.7,0.1-1,0.2
		c-0.3,0.1-0.5,0.3-0.7,0.5s-0.3,0.5-0.4,0.9c-0.1,0.4-0.1,0.8-0.1,1.3v0.3c0,0.5,0,1,0.1,1.4s0.2,0.8,0.4,1
		c0.2,0.3,0.4,0.5,0.7,0.6s0.6,0.2,1.1,0.2c0.7,0,1.2-0.3,1.6-0.9c0.3-0.6,0.5-1.4,0.5-2.4c0-1.1-0.2-1.9-0.5-2.4
		C227.7,9.9,227.2,9.6,226.5,9.6z"/>
	<path class="st2" d="M233.7,17.2h-1.4V5h1.4V17.2z"/>
	<path class="st2" d="M243.4,12.9c0,0.7-0.1,1.3-0.3,1.9s-0.4,1-0.8,1.4c-0.3,0.4-0.7,0.7-1.2,0.9c-0.5,0.2-1,0.3-1.6,0.3
		c-0.5,0-1-0.1-1.5-0.3c-0.5-0.2-0.8-0.5-1.2-0.9c-0.3-0.4-0.6-0.8-0.8-1.4s-0.3-1.2-0.3-1.9s0.1-1.3,0.3-1.9c0.2-0.5,0.4-1,0.7-1.4
		s0.7-0.7,1.2-0.9s1-0.3,1.6-0.3c0.5,0,1,0.1,1.5,0.3s0.8,0.5,1.2,0.9c0.3,0.4,0.6,0.8,0.8,1.4C243.3,11.5,243.4,12.2,243.4,12.9z
		 M237.4,12.9c0,1.1,0.2,1.9,0.5,2.5c0.4,0.5,0.9,0.8,1.7,0.8s1.4-0.3,1.7-0.8c0.4-0.5,0.5-1.4,0.5-2.5s-0.2-1.9-0.5-2.4
		s-0.9-0.8-1.7-0.8s-1.4,0.3-1.7,0.8S237.4,11.8,237.4,12.9z"/>
	<path class="st2" d="M249.4,8.4c0.2,0,0.3,0,0.5,0s0.3,0,0.5,0.1l-0.2,1.3c-0.1,0-0.3,0-0.4-0.1c-0.2,0-0.3,0-0.4,0
		c-0.3,0-0.6,0.1-0.9,0.2s-0.5,0.3-0.7,0.6c-0.2,0.2-0.3,0.5-0.5,0.9c-0.1,0.3-0.2,0.7-0.2,1.2v4.6h-1.4V8.6h1.2l0.2,1.6h0.1
		c0.1-0.2,0.3-0.4,0.4-0.6c0.1-0.2,0.3-0.4,0.5-0.6c0.2-0.2,0.4-0.3,0.6-0.4C248.8,8.5,249.1,8.4,249.4,8.4z"/>
	<path class="st2" d="M256.9,17.2l-0.3-1.2h-0.1c-0.2,0.2-0.3,0.4-0.5,0.6c-0.2,0.2-0.4,0.3-0.6,0.4s-0.4,0.2-0.7,0.2
		s-0.5,0.1-0.9,0.1s-0.7-0.1-1-0.2s-0.6-0.3-0.8-0.5s-0.4-0.5-0.5-0.8c-0.1-0.3-0.2-0.7-0.2-1.1c0-0.9,0.3-1.5,0.9-2
		c0.6-0.5,1.5-0.7,2.7-0.8l1.4-0.1v-0.5c0-0.3,0-0.6-0.1-0.9s-0.2-0.4-0.3-0.6c-0.1-0.1-0.3-0.2-0.5-0.3s-0.5-0.1-0.7-0.1
		c-0.4,0-0.8,0.1-1.2,0.2s-0.7,0.3-1.1,0.5L252,9.2c0.4-0.2,0.8-0.4,1.3-0.5s1-0.2,1.5-0.2s1,0.1,1.4,0.2c0.4,0.1,0.7,0.3,1,0.5
		s0.4,0.5,0.6,0.9s0.2,0.8,0.2,1.3v5.9L256.9,17.2L256.9,17.2z M254.3,16.2c0.3,0,0.6,0,0.9-0.1c0.3-0.1,0.5-0.2,0.7-0.4
		c0.2-0.2,0.4-0.5,0.5-0.8s0.2-0.7,0.2-1.1V13l-1.1,0.1c-0.5,0-0.9,0.1-1.2,0.2c-0.3,0.1-0.6,0.2-0.8,0.3s-0.3,0.3-0.4,0.5
		s-0.1,0.4-0.1,0.7c0,0.5,0.1,0.8,0.4,1.1C253.5,16.1,253.9,16.2,254.3,16.2z"/>
	<path class="st2" d="M263.1,16.2c0.1,0,0.2,0,0.3,0c0.1,0,0.2,0,0.3,0s0.2,0,0.3-0.1c0.1,0,0.2,0,0.2-0.1v1.1
		c-0.1,0-0.2,0.1-0.3,0.1s-0.2,0.1-0.3,0.1s-0.3,0-0.4,0.1s-0.3,0-0.4,0c-0.3,0-0.6,0-0.9-0.1s-0.5-0.2-0.7-0.4s-0.4-0.5-0.5-0.8
		c-0.1-0.3-0.2-0.8-0.2-1.3v-5h-1.2V9l1.2-0.6l0.6-1.8h0.8v2h2.2v1.1h-2.2v5c0,0.5,0.1,0.9,0.2,1.1C262.5,16,262.8,16.2,263.1,16.2z
		"/>
	<path class="st2" d="M265.8,6.3c0-0.3,0.1-0.5,0.2-0.7s0.4-0.2,0.6-0.2c0.1,0,0.2,0,0.3,0.1c0.1,0,0.2,0.1,0.3,0.2
		c0.1,0.1,0.1,0.2,0.2,0.3c0,0.1,0.1,0.2,0.1,0.4c0,0.3-0.1,0.5-0.2,0.7s-0.4,0.2-0.6,0.2s-0.4-0.1-0.6-0.2
		C265.9,6.8,265.8,6.6,265.8,6.3z M267.4,17.2H266V8.6h1.4V17.2z"/>
	<path class="st2" d="M277.1,12.9c0,0.7-0.1,1.3-0.3,1.9s-0.4,1-0.8,1.4c-0.3,0.4-0.7,0.7-1.2,0.9c-0.5,0.2-1,0.3-1.6,0.3
		c-0.5,0-1-0.1-1.5-0.3c-0.5-0.2-0.8-0.5-1.2-0.9c-0.3-0.4-0.6-0.8-0.8-1.4s-0.3-1.2-0.3-1.9s0.1-1.3,0.3-1.9c0.2-0.5,0.4-1,0.7-1.4
		c0.3-0.4,0.7-0.7,1.2-0.9s1-0.3,1.6-0.3c0.5,0,1,0.1,1.5,0.3s0.8,0.5,1.2,0.9c0.3,0.4,0.6,0.8,0.8,1.4
		C277,11.5,277.1,12.2,277.1,12.9z M271.1,12.9c0,1.1,0.2,1.9,0.5,2.5c0.4,0.5,0.9,0.8,1.7,0.8s1.4-0.3,1.7-0.8
		c0.4-0.5,0.5-1.4,0.5-2.5s-0.2-1.9-0.5-2.4s-0.9-0.8-1.7-0.8s-1.4,0.3-1.7,0.8S271.1,11.8,271.1,12.9z"/>
	<path class="st2" d="M284.7,17.2v-5.5c0-0.7-0.1-1.2-0.4-1.5s-0.7-0.5-1.3-0.5c-0.4,0-0.8,0.1-1.1,0.2c-0.3,0.1-0.5,0.3-0.7,0.6
		s-0.3,0.6-0.4,1s-0.1,0.8-0.1,1.3v4.4h-1.4V8.6h1.2l0.2,1.2h0.1c0.1-0.2,0.3-0.4,0.5-0.6s0.4-0.3,0.6-0.4s0.4-0.2,0.7-0.2
		c0.2-0.1,0.5-0.1,0.7-0.1c1,0,1.7,0.2,2.2,0.7s0.7,1.3,0.7,2.4v5.6H284.7z"/>
	<path class="st2" d="M70.8,32.1c0-0.4,0.1-0.8,0.2-1.1c0.1-0.3,0.3-0.6,0.5-0.9c0.2-0.3,0.4-0.5,0.7-0.7c0.3-0.2,0.6-0.4,1-0.7
		c-0.2-0.2-0.3-0.4-0.5-0.6s-0.3-0.4-0.4-0.6S72.1,27,72,26.8c-0.1-0.2-0.1-0.5-0.1-0.8c0-0.4,0.1-0.7,0.2-1.1
		c0.1-0.3,0.3-0.6,0.6-0.8c0.2-0.2,0.5-0.4,0.9-0.5c0.4-0.1,0.8-0.2,1.2-0.2c0.4,0,0.8,0.1,1.2,0.2c0.3,0.1,0.6,0.3,0.9,0.5
		c0.2,0.2,0.4,0.5,0.5,0.8c0.1,0.3,0.2,0.7,0.2,1.1c0,0.3-0.1,0.6-0.2,0.9s-0.3,0.5-0.5,0.8c-0.2,0.3-0.5,0.5-0.8,0.7
		c-0.3,0.2-0.6,0.4-0.9,0.6l2.8,2.9c0.1-0.2,0.3-0.3,0.4-0.5c0.1-0.2,0.2-0.3,0.3-0.5c0.1-0.2,0.2-0.4,0.2-0.6s0.1-0.4,0.2-0.7h1.4
		c-0.1,0.3-0.2,0.7-0.3,0.9c-0.1,0.2-0.2,0.6-0.4,0.8c-0.1,0.3-0.3,0.5-0.5,0.7c-0.2,0.2-0.4,0.4-0.6,0.7l2.2,2.3h-1.8l-1.3-1.3
		c-0.3,0.2-0.5,0.4-0.8,0.6c-0.2,0.2-0.5,0.3-0.8,0.5c-0.3,0.1-0.6,0.2-0.9,0.3s-0.7,0.1-1.1,0.1c-0.5,0-1-0.1-1.5-0.2
		c-0.5-0.1-0.8-0.3-1.1-0.6c-0.3-0.3-0.5-0.6-0.7-1C70.9,33,70.8,32.6,70.8,32.1z M74.3,34c0.3,0,0.6,0,0.8-0.1
		c0.3-0.1,0.5-0.1,0.7-0.2c0.2-0.1,0.4-0.2,0.6-0.4s0.4-0.3,0.5-0.5l-3-3.2c-0.3,0.2-0.5,0.3-0.7,0.5c-0.2,0.2-0.4,0.3-0.5,0.5
		c-0.1,0.2-0.3,0.4-0.3,0.6c-0.1,0.2-0.1,0.5-0.1,0.8c0,0.3,0,0.5,0.1,0.8c0.1,0.2,0.2,0.4,0.4,0.6c0.2,0.2,0.4,0.3,0.6,0.4
		C73.7,33.9,74,34,74.3,34z M73.2,26c0,0.2,0,0.4,0.1,0.5c0,0.2,0.1,0.3,0.2,0.5c0.1,0.2,0.2,0.3,0.3,0.5c0.1,0.2,0.3,0.4,0.5,0.6
		c0.3-0.2,0.6-0.4,0.8-0.5c0.2-0.2,0.4-0.3,0.6-0.5c0.1-0.2,0.3-0.3,0.3-0.5c0.1-0.2,0.1-0.4,0.1-0.6c0-0.2,0-0.4-0.1-0.5
		c-0.1-0.2-0.2-0.3-0.3-0.4c-0.1-0.1-0.3-0.2-0.4-0.3c-0.2-0.1-0.4-0.1-0.6-0.1c-0.4,0-0.8,0.1-1.1,0.3C73.4,25.2,73.2,25.6,73.2,26
		z"/>
	<g>
		<path class="st2" d="M93.9,29.4c0,1-0.1,1.8-0.4,2.5c-0.3,0.7-0.6,1.3-1.1,1.8s-1.1,0.9-1.7,1.1c-0.7,0.2-1.5,0.4-2.3,0.4h-2.9
			V23.8h3.2c0.8,0,1.5,0.1,2.2,0.4c0.6,0.2,1.2,0.6,1.6,1.1c0.5,0.5,0.8,1.1,1.1,1.8C93.8,27.6,93.9,28.4,93.9,29.4z M92.4,29.4
			c0-0.8-0.1-1.4-0.3-2s-0.4-1-0.8-1.4s-0.7-0.6-1.2-0.8c-0.5-0.2-1-0.3-1.6-0.3H87v8.9h1.3c1.4,0,2.4-0.4,3.1-1.1
			C92.1,32,92.4,30.9,92.4,29.4z"/>
		<path class="st2" d="M99.7,35.3c-0.6,0-1.1-0.1-1.6-0.3s-0.9-0.5-1.2-0.8c-0.3-0.4-0.6-0.8-0.8-1.4s-0.3-1.2-0.3-1.9
			c0-0.7,0.1-1.3,0.3-1.9c0.2-0.6,0.4-1,0.7-1.4c0.3-0.4,0.7-0.7,1.1-0.9c0.4-0.2,0.9-0.3,1.4-0.3s1,0.1,1.4,0.3
			c0.4,0.2,0.8,0.4,1,0.8c0.3,0.3,0.5,0.7,0.7,1.2s0.2,1,0.2,1.6v0.9h-5.4c0,1,0.2,1.7,0.6,2.2s1,0.7,1.8,0.7c0.3,0,0.5,0,0.7,0
			s0.4-0.1,0.7-0.1c0.2,0,0.4-0.1,0.6-0.2c0.2-0.1,0.4-0.2,0.6-0.3v1.3c-0.2,0.1-0.4,0.2-0.6,0.3s-0.4,0.1-0.6,0.2s-0.4,0.1-0.7,0.1
			S99.9,35.3,99.7,35.3z M99.3,27.6c-0.6,0-1.1,0.2-1.4,0.6s-0.5,1-0.6,1.8h3.8c0-0.4,0-0.7-0.1-1s-0.2-0.5-0.3-0.8
			c-0.1-0.2-0.3-0.4-0.6-0.5C99.9,27.7,99.6,27.6,99.3,27.6z"/>
		<path class="st2" d="M106.4,35.2l-2.9-8.6h1.5l1.6,4.8c0.1,0.2,0.1,0.4,0.2,0.7c0.1,0.3,0.2,0.5,0.2,0.8s0.1,0.5,0.2,0.8
			c0.1,0.2,0.1,0.4,0.1,0.6h0.1c0-0.1,0.1-0.3,0.1-0.6s0.1-0.5,0.2-0.8s0.2-0.6,0.2-0.8c0.1-0.3,0.1-0.5,0.2-0.7l1.6-4.8h1.5
			l-2.9,8.6C108.3,35.2,106.4,35.2,106.4,35.2z"/>
		<path class="st2" d="M115.9,35.3c-0.6,0-1.1-0.1-1.6-0.3s-0.9-0.5-1.2-0.8c-0.3-0.4-0.6-0.8-0.8-1.4s-0.3-1.1-0.3-1.9
			c0-0.7,0.1-1.3,0.3-1.9c0.2-0.6,0.4-1,0.7-1.4c0.3-0.4,0.7-0.7,1.1-0.9c0.4-0.2,0.9-0.3,1.4-0.3s1,0.1,1.4,0.3
			c0.4,0.2,0.8,0.4,1,0.8c0.3,0.3,0.5,0.7,0.7,1.2s0.2,1,0.2,1.6v0.9h-5.4c0,1,0.2,1.7,0.6,2.2s1,0.7,1.8,0.7c0.3,0,0.5,0,0.7,0
			s0.4-0.1,0.7-0.1c0.2,0,0.4-0.1,0.6-0.2c0.2-0.1,0.4-0.2,0.6-0.3v1.3c-0.2,0.1-0.4,0.2-0.6,0.3s-0.4,0.1-0.6,0.2s-0.4,0.1-0.7,0.1
			S116.2,35.3,115.9,35.3z M115.5,27.6c-0.6,0-1.1,0.2-1.4,0.6s-0.5,1-0.6,1.8h3.8c0-0.4,0-0.7-0.1-1s-0.2-0.5-0.3-0.8
			c-0.1-0.2-0.3-0.4-0.6-0.5C116.1,27.7,115.9,27.6,115.5,27.6z"/>
		<path class="st2" d="M122.5,35.2h-1.4V23h1.4V35.2z"/>
		<path class="st2" d="M132.2,30.9c0,0.7-0.1,1.3-0.3,1.9c-0.2,0.6-0.4,1-0.8,1.4c-0.3,0.4-0.7,0.7-1.2,0.9s-1,0.3-1.6,0.3
			c-0.5,0-1-0.1-1.5-0.3s-0.8-0.5-1.2-0.9c-0.3-0.4-0.6-0.8-0.8-1.4c-0.2-0.6-0.3-1.2-0.3-1.9c0-0.7,0.1-1.3,0.3-1.9
			c0.2-0.5,0.4-1,0.7-1.4c0.3-0.4,0.7-0.7,1.2-0.9c0.5-0.2,1-0.3,1.6-0.3c0.5,0,1,0.1,1.5,0.3s0.8,0.5,1.2,0.9
			c0.3,0.4,0.6,0.8,0.8,1.4C132.1,29.5,132.2,30.2,132.2,30.9z M126.2,30.9c0,1.1,0.2,1.9,0.5,2.5c0.4,0.5,0.9,0.8,1.7,0.8
			c0.8,0,1.4-0.3,1.7-0.8c0.4-0.5,0.5-1.4,0.5-2.5c0-1.1-0.2-1.9-0.5-2.4c-0.4-0.5-0.9-0.8-1.7-0.8c-0.8,0-1.4,0.3-1.7,0.8
			S126.2,29.8,126.2,30.9z"/>
		<path class="st2" d="M138.3,35.3c-0.3,0-0.6,0-0.8-0.1s-0.5-0.2-0.7-0.3s-0.4-0.2-0.5-0.4c-0.2-0.2-0.3-0.3-0.4-0.5h-0.1
			c0,0.2,0,0.3,0,0.5c0,0.1,0,0.3,0,0.4c0,0.1,0,0.3,0,0.3V39h-1.4V26.6h1.2l0.2,1.2h0.1c0.1-0.2,0.3-0.4,0.4-0.5
			c0.2-0.2,0.3-0.3,0.5-0.4c0.2-0.1,0.4-0.2,0.7-0.3c0.3-0.1,0.5-0.1,0.8-0.1c0.5,0,0.9,0.1,1.3,0.3c0.4,0.2,0.7,0.5,1,0.8
			c0.3,0.4,0.5,0.8,0.7,1.4c0.2,0.6,0.2,1.2,0.2,1.9c0,0.7-0.1,1.4-0.2,1.9c-0.1,0.5-0.4,1-0.7,1.4c-0.3,0.4-0.6,0.7-1,0.8
			C139.3,35.2,138.8,35.3,138.3,35.3z M138,27.6c-0.4,0-0.7,0.1-1,0.2s-0.5,0.3-0.7,0.5s-0.3,0.5-0.4,0.9c-0.1,0.4-0.1,0.8-0.1,1.3
			v0.3c0,0.5,0,1,0.1,1.4c0.1,0.4,0.2,0.8,0.4,1c0.2,0.3,0.4,0.5,0.7,0.6c0.3,0.1,0.6,0.2,1.1,0.2c0.7,0,1.2-0.3,1.6-0.9
			c0.3-0.6,0.5-1.4,0.5-2.4c0-1.1-0.2-1.9-0.5-2.4C139.3,27.9,138.8,27.6,138,27.6z"/>
		<path class="st2" d="M154.1,35.2v-5.5c0-0.7-0.1-1.2-0.4-1.5c-0.3-0.3-0.7-0.5-1.2-0.5c-0.4,0-0.7,0.1-1,0.2s-0.5,0.3-0.7,0.5
			s-0.3,0.5-0.4,0.9s-0.1,0.8-0.1,1.2v4.7h-1.4v-5.5c0-0.7-0.1-1.2-0.4-1.5c-0.3-0.3-0.7-0.5-1.2-0.5c-0.4,0-0.7,0.1-1,0.2
			s-0.5,0.3-0.7,0.6s-0.3,0.6-0.4,1c-0.1,0.4-0.1,0.8-0.1,1.3v4.4h-1.4v-8.6h1.2l0.2,1.2h0.1c0.1-0.2,0.3-0.4,0.4-0.6
			s0.4-0.3,0.6-0.4c0.2-0.1,0.4-0.2,0.7-0.2c0.2-0.1,0.5-0.1,0.7-0.1c0.6,0,1.1,0.1,1.6,0.3c0.4,0.2,0.7,0.6,0.9,1.1h0.1
			c0.1-0.2,0.3-0.5,0.5-0.6c0.2-0.2,0.4-0.3,0.6-0.4s0.5-0.2,0.7-0.3c0.2-0.1,0.5-0.1,0.8-0.1c0.9,0,1.6,0.2,2.1,0.7
			s0.7,1.3,0.7,2.4v5.6H154.1z"/>
		<path class="st2" d="M161.5,35.3c-0.6,0-1.1-0.1-1.6-0.3s-0.9-0.5-1.2-0.8c-0.3-0.4-0.6-0.8-0.8-1.4s-0.3-1.2-0.3-1.9
			c0-0.7,0.1-1.3,0.3-1.9s0.4-1,0.7-1.4s0.7-0.7,1.1-0.9c0.4-0.2,0.9-0.3,1.4-0.3s1,0.1,1.4,0.3c0.4,0.2,0.8,0.4,1,0.8
			c0.3,0.3,0.5,0.7,0.7,1.2s0.2,1,0.2,1.6v0.9H159c0,1,0.2,1.7,0.6,2.2c0.4,0.5,1,0.7,1.8,0.7c0.3,0,0.5,0,0.7,0s0.4-0.1,0.7-0.1
			c0.2,0,0.4-0.1,0.6-0.2c0.2-0.1,0.4-0.2,0.6-0.3v1.3c-0.2,0.1-0.4,0.2-0.6,0.3c-0.2,0.1-0.4,0.1-0.6,0.2s-0.4,0.1-0.7,0.1
			S161.8,35.3,161.5,35.3z M161.2,27.6c-0.6,0-1.1,0.2-1.4,0.6c-0.3,0.4-0.5,1-0.6,1.8h3.8c0-0.4,0-0.7-0.1-1s-0.2-0.5-0.3-0.8
			c-0.1-0.2-0.3-0.4-0.6-0.5C161.8,27.7,161.5,27.6,161.2,27.6z"/>
		<path class="st2" d="M172.1,35.2v-5.5c0-0.7-0.1-1.2-0.4-1.5c-0.3-0.3-0.7-0.5-1.3-0.5c-0.4,0-0.8,0.1-1.1,0.2s-0.5,0.3-0.7,0.6
			c-0.2,0.3-0.3,0.6-0.4,1c-0.1,0.4-0.1,0.8-0.1,1.3v4.4h-1.4v-8.6h1.2l0.2,1.2h0.1c0.1-0.2,0.3-0.4,0.5-0.6s0.4-0.3,0.6-0.4
			c0.2-0.1,0.4-0.2,0.7-0.2c0.2-0.1,0.5-0.1,0.7-0.1c1,0,1.7,0.2,2.2,0.7s0.7,1.3,0.7,2.4v5.6H172.1z"/>
		<path class="st2" d="M178.7,34.2c0.1,0,0.2,0,0.3,0s0.2,0,0.3,0s0.2,0,0.3-0.1c0.1,0,0.2,0,0.2-0.1v1.1c-0.1,0-0.2,0.1-0.3,0.1
			s-0.2,0.1-0.3,0.1s-0.3,0-0.4,0.1s-0.3,0-0.4,0c-0.3,0-0.6,0-0.9-0.1s-0.5-0.2-0.7-0.4s-0.4-0.5-0.5-0.8s-0.2-0.8-0.2-1.3v-5H175
			V27l1.2-0.6l0.6-1.8h0.8v2h2.2v1.1h-2.2v5c0,0.5,0.1,0.9,0.2,1.1C178.1,34,178.4,34.2,178.7,34.2z"/>
		<path class="st2" d="M190.5,24.9c-0.6,0-1.1,0.1-1.5,0.3s-0.8,0.5-1.2,0.9c-0.3,0.4-0.6,0.9-0.7,1.4c-0.2,0.6-0.3,1.2-0.3,1.9
			c0,0.7,0.1,1.4,0.2,2s0.4,1.1,0.7,1.4s0.7,0.7,1.1,0.9s1,0.3,1.6,0.3c0.5,0,0.9,0,1.3-0.1c0.4-0.1,0.8-0.2,1.2-0.3v1.3
			c-0.2,0.1-0.4,0.1-0.6,0.2c-0.2,0.1-0.4,0.1-0.6,0.1s-0.5,0.1-0.7,0.1s-0.5,0-0.8,0c-0.9,0-1.6-0.1-2.2-0.4s-1.1-0.7-1.6-1.2
			s-0.7-1.1-0.9-1.9c-0.2-0.7-0.3-1.5-0.3-2.4s0.1-1.7,0.3-2.4s0.6-1.3,1-1.9s1-0.9,1.6-1.2c0.7-0.3,1.4-0.4,2.2-0.4
			c0.6,0,1.1,0.1,1.6,0.2s1,0.3,1.4,0.5l-0.6,1.2c-0.3-0.2-0.7-0.3-1.1-0.4C191.5,24.9,191,24.9,190.5,24.9z"/>
		<path class="st2" d="M202.4,30.9c0,0.7-0.1,1.3-0.3,1.9s-0.4,1-0.8,1.4c-0.3,0.4-0.7,0.7-1.2,0.9s-1,0.3-1.6,0.3
			c-0.5,0-1-0.1-1.5-0.3s-0.8-0.5-1.2-0.9c-0.3-0.4-0.6-0.8-0.8-1.4s-0.3-1.2-0.3-1.9c0-0.7,0.1-1.3,0.3-1.9c0.2-0.5,0.4-1,0.7-1.4
			s0.7-0.7,1.2-0.9s1-0.3,1.6-0.3c0.5,0,1,0.1,1.5,0.3s0.8,0.5,1.2,0.9c0.3,0.4,0.6,0.8,0.8,1.4C202.3,29.5,202.4,30.2,202.4,30.9z
			 M196.4,30.9c0,1.1,0.2,1.9,0.5,2.5c0.4,0.5,0.9,0.8,1.7,0.8s1.4-0.3,1.7-0.8c0.4-0.5,0.5-1.4,0.5-2.5c0-1.1-0.2-1.9-0.5-2.4
			s-0.9-0.8-1.7-0.8s-1.4,0.3-1.7,0.8S196.4,29.8,196.4,30.9z"/>
		<path class="st2" d="M204.4,34.3c0-0.2,0-0.4,0.1-0.5s0.1-0.2,0.2-0.3s0.2-0.1,0.3-0.2s0.2-0.1,0.4-0.1c0.1,0,0.3,0,0.4,0.1
			s0.2,0.1,0.3,0.2s0.2,0.2,0.2,0.3c0.1,0.1,0.1,0.3,0.1,0.5s0,0.4-0.1,0.5s-0.1,0.3-0.2,0.3c-0.1,0.1-0.2,0.2-0.3,0.2
			s-0.3,0.1-0.4,0.1c-0.1,0-0.3,0-0.4-0.1s-0.2-0.1-0.3-0.2c-0.1-0.1-0.2-0.2-0.2-0.3C204.4,34.7,204.4,34.5,204.4,34.3z"/>
		<path class="st2" d="M234.8,34.3c0-0.2,0-0.4,0.1-0.5s0.1-0.2,0.2-0.3s0.2-0.1,0.3-0.2s0.2-0.1,0.4-0.1c0.1,0,0.3,0,0.4,0.1
			s0.2,0.1,0.3,0.2s0.2,0.2,0.2,0.3c0.1,0.1,0.1,0.3,0.1,0.5s0,0.4-0.1,0.5s-0.1,0.3-0.2,0.3c-0.1,0.1-0.2,0.2-0.3,0.2
			s-0.3,0.1-0.4,0.1c-0.1,0-0.3,0-0.4-0.1s-0.2-0.1-0.3-0.2c-0.1-0.1-0.2-0.2-0.2-0.3C234.8,34.7,234.8,34.5,234.8,34.3z"/>
		<path class="st2" d="M210.4,33.3l0.1,0.2c-0.1,0.3-0.2,0.6-0.3,0.9c-0.1,0.3-0.2,0.6-0.3,1c-0.1,0.3-0.2,0.6-0.4,1
			s-0.3,0.6-0.4,0.9H208c0.1-0.3,0.2-0.6,0.2-1s0.1-0.7,0.2-1s0.1-0.7,0.2-1c0.1-0.3,0.1-0.6,0.1-0.9h1.7V33.3z"/>
		<path class="st2" d="M213.1,35.2V23.8h1.5v10.1h4.5v1.3H213.1z"/>
		<path class="st2" d="M223.3,34.2c0.1,0,0.2,0,0.3,0s0.2,0,0.3,0s0.2,0,0.3-0.1c0.1,0,0.2,0,0.2-0.1v1.1c-0.1,0-0.2,0.1-0.3,0.1
			s-0.2,0.1-0.3,0.1s-0.3,0-0.4,0.1s-0.3,0-0.4,0c-0.3,0-0.6,0-0.9-0.1s-0.5-0.2-0.7-0.4s-0.4-0.5-0.5-0.8s-0.2-0.8-0.2-1.3v-5h-1.2
			V27l1.2-0.6l0.6-1.8h0.8v2h2.2v1.1h-2.2v5c0,0.5,0.1,0.9,0.2,1.1C222.7,34,223,34.2,223.3,34.2z"/>
		<path class="st2" d="M231.5,34L231.5,34c-0.2,0.2-0.3,0.3-0.5,0.5s-0.3,0.3-0.5,0.4c-0.2,0.1-0.4,0.2-0.7,0.3s-0.5,0.1-0.8,0.1
			c-0.5,0-0.9-0.1-1.3-0.3s-0.7-0.5-1-0.8c-0.3-0.4-0.5-0.8-0.7-1.4c-0.2-0.6-0.2-1.2-0.2-1.9c0-0.7,0.1-1.4,0.2-1.9s0.4-1,0.7-1.4
			s0.6-0.7,1-0.8c0.4-0.2,0.8-0.3,1.3-0.3c0.3,0,0.6,0,0.8,0.1s0.5,0.2,0.7,0.3c0.2,0.1,0.4,0.2,0.5,0.4c0.2,0.2,0.3,0.3,0.4,0.5
			h0.1c0-0.2,0-0.3,0-0.5c0-0.1,0-0.3,0-0.4s0-0.3,0-0.3V23h1.4v12.2h-1.1L231.5,34z M229.2,34.2c0.4,0,0.7-0.1,1-0.2
			c0.3-0.1,0.5-0.3,0.7-0.5s0.3-0.6,0.4-0.9s0.1-0.8,0.1-1.3V31c0-0.5,0-1-0.1-1.4s-0.2-0.8-0.4-1c-0.2-0.3-0.4-0.5-0.7-0.6
			s-0.6-0.2-1.1-0.2c-0.7,0-1.2,0.3-1.6,0.9c-0.3,0.6-0.5,1.4-0.5,2.4c0,1.1,0.2,1.9,0.5,2.4C228,33.9,228.5,34.2,229.2,34.2z"/>
	</g>
</g>
</svg>
