<?xml version="1.0" encoding="utf-8"?>
<!-- Generator: Adobe Illustrator 19.0.0, SVG Export Plug-In . SVG Version: 6.00 Build 0)  -->
<svg version="1.1" id="レイヤー_1" xmlns="http://www.w3.org/2000/svg" xmlns:xlink="http://www.w3.org/1999/xlink" x="0px"
	 y="0px" viewBox="0 0 330 42" style="enable-background:new 0 0 330 42;" xml:space="preserve">
<style type="text/css">
	.st0{fill:#B8DEF3;}
	.st1{fill:#040000;}
	.st2{fill:none;}
</style>
<path class="st0" d="M32.2,25.7L32.2,25.7H31l0-0.1c-0.2-0.6-0.3-1.8-0.3-2.4c0-1.1-0.4-1.6-1.1-1.6h-1.3v4.1h-1.1v-9.6h2
	c1.3,0,2.6,0.3,2.6,2.7v0.1c0,1-0.4,1.7-1.1,2c0.7,0.2,0.8,0.8,0.9,1.8c0,0.7,0.1,1.4,0.2,2.1C32,25.2,32.1,25.5,32.2,25.7
	 M28.3,20.4h1.2c0.3,0,1.3,0,1.3-1.5v-0.1c0-1.5-0.9-1.5-1.4-1.5h-1V20.4z"/>
<polygon class="st0" points="36.6,25.7 32.4,25.7 32.4,16.1 36.6,16.1 36.6,17.3 33.5,17.3 33.5,20.1 36.4,20.1 36.4,21.3 
	33.5,21.3 33.5,24.5 36.6,24.5 "/>
<path class="st0" d="M58.8,19.1L54,15.4l-2.4,1.8l-14.6-11l2.4-1.8l-4.9-3.7L32,2.6l-2.4-1.8l-4.9,3.7l2.4,1.8l-14.6,11l-2.4-1.8
	l-4.9,3.7l2.4,1.8l-2.4,1.8l4.9,3.7l2.4-1.8l14.6,11l-2.4,1.8l4.9,3.7l2.4-1.8l2.4,1.8l4.9-3.7l-2.4-1.8l14.6-11l2.4,1.8l4.9-3.7
	l-2.4-1.8L58.8,19.1z M41.1,21.2c0,2.3-0.5,3.2-1.6,3.2h-1.3v-7.2h1.3c1.3,0,1.5,1.2,1.6,3.4C41.1,20.9,41.1,21.1,41.1,21.2z
	 M22.5,17.1c-0.2,0.4-0.3,0.9-0.3,1.5c0,0.8,0.1,1.7,1,2.2c0.3,0.2,0.7,0.4,1.1,0.5c0.2,0.1,0.3,0.1,0.4,0.2c0.1,0,0.2,0.1,0.3,0.1
	c0.6,0.3,0.9,0.4,0.9,1.6c0,0.9-0.5,1.5-1.3,1.5c-1,0-1.3-0.5-1.3-1.8v-0.4h-1.1l0,0.3c0,0.5,0,1.1,0.2,1.6c0,0.1,0.1,0.2,0.2,0.3
	l-5-3.7L22.5,17.1z M24,25.8c0.1,0,0.3,0.1,0.4,0.1c1.5,0,2.5-1.1,2.5-2.9c0-1.3-0.3-1.9-1.8-2.6l-1.2-0.6c-0.4-0.2-0.6-0.6-0.6-1.1
	c0-0.8,0.1-1.5,1.2-1.5c0.8,0,1.1,0.7,1.1,1.4c0,0,0,0,0,0.1c0,0,0,0.1,0,0.1v0.1h1.1v-0.1c0,0,0-0.1,0-0.1c0,0,0-0.1,0-0.1
	c0-1.6-0.8-2.6-2.3-2.6c-0.1,0-0.2,0-0.3,0l8-6l8.4,6.3c-0.3-0.1-0.6-0.2-1-0.2h-2.3v9.6h2.5c0.4,0,0.8-0.1,1.1-0.3L32,31.9L24,25.8
	z M41.1,25.1c0.9-0.9,1.1-2.6,1.1-4.2c0-0.1,0-0.2,0-0.2c0-0.1,0-0.2,0-0.2c0-1.1-0.1-2.4-0.8-3.3l5.1,3.8L41.1,25.1z"/>
<path class="st1" d="M72.9,19.8c-0.8,1.3-1.3,1.8-1.8,2.3L70,18.6c1.4-1.6,3.8-6.1,4.4-11.6l2.7,0.4c-0.1,1.1-0.3,3.4-1.6,7v19.1
	h-2.6V19.8z M87.2,12.6c-1.5-1.4-3.2-2.6-5-3.6l1.6-2.4c1.7,0.9,3.5,2.1,5.2,3.4l-1.6,2.5H94v2.8h-6.9v5.3h5.9v2.8h-5.9v6.3h7.5v2.7
	H77v-2.7h7.4v-6.3h-6v-2.8h6v-5.3h-6.8v-2.8H87.2z"/>
<path class="st1" d="M105,31.5c-0.9,0.2-4.5,0.9-8.7,1.3L95.9,30c1.6-0.1,2.8-0.2,4.3-0.4v-7.7h-4.1v-2.6h4.1v-2.5h-2.3v-1.7
	c-0.4,0.4-0.5,0.5-1.1,1l-0.9-3c2-1.8,3.1-3.4,4.2-6.2h2.7c1.3,2.3,2.2,3.4,4.1,4.8l-1.6,2.4c-2.1-2-3.1-3.5-3.6-4.5
	c-0.4,0.7-1.3,2.5-3,4.6h6.3v2.6h-2.5v2.5h4v2.6h-4v7.3c2.1-0.4,2.5-0.5,3.4-0.6v1.2c0.4-0.9,1.4-3.1,1.4-7.7V10.7h4.9V6.9h2.6v3.8
	h5.4v2.7h-10.4v8.9c0,1,0,2.7-0.7,6.3c-0.5,2.5-1.5,4-2.2,4.9L105,31.5z M97.1,28.5c0-1.2,0-2.3-0.4-4.8l2-0.3
	c0.3,2.1,0.4,3,0.6,4.8L97.1,28.5z M103.5,27.5c0.4-1.6,0.6-3,0.7-4.5l2,0.3c-0.1,1.6-0.5,3.3-0.8,4.6L103.5,27.5z M109.4,29.6
	c0.2,0,0.8,0,1-0.1c0.3-1.1,1.7-7.5,2.4-14.5l2.7,0.5c-1.1,6.4-1.2,7.1-2.6,13.8c2-0.2,3.6-0.5,4.4-0.6c-0.7-3.7-0.9-4.9-1.7-7.6
	l2.4-0.5c1.1,3.8,2.1,8,2.5,11.9l-2.6,0.6c0-0.7-0.1-1-0.2-1.9c-0.7,0.1-4,0.8-8,1.2L109.4,29.6z"/>
<path class="st1" d="M124.5,17c-1.4,0.5-1.5,0.5-2.2,0.7l-0.5-2.7c1.8-0.4,4.8-1.4,6.5-2.1l0.2,2.5c-1.1,0.5-1.3,0.6-3.5,1.4h18
	c-2.2-0.8-4.1-2.4-5.6-4.3c-0.6,1-2.4,3.2-7.3,4.1l-0.9-2.4c2.2-0.3,5.6-1.2,6.5-3.7H133c-1.3,1.4-2.1,1.8-2.8,2.3l-1.4-2
	c1.4-0.8,3.4-2.6,4.2-4l2.5,0.5c-0.3,0.6-0.4,0.7-0.7,1.2h10.5v2.1c-0.5,1-1.1,1.9-1.7,2.8l-2.3-1c0.6-0.7,0.8-1,1.3-1.8h-4.2
	c1.7,2.6,4.7,4.1,7.7,4.3l-1.4,2.6c-0.5-0.1-0.7-0.2-1.4-0.4v12h-4.6c0.6,0.3,3.4,1.6,7.4,1.8l-1.1,2.7c-3.4-0.6-5.5-1.3-8.5-2.9
	l1-1.6h-7.7l1.1,1.6c-1.9,1.3-5.6,2.6-8.1,2.9l-1.1-2.6c4.4-0.5,6.7-1.7,7-1.9h-4.3V17z M123.6,7.1c1.7,0.5,2.7,0.8,4.6,1.7
	l-0.9,2.6c-1.6-0.9-3.4-1.6-4.6-1.9L123.6,7.1z M127.2,20.4h13.4v-1.5h-13.4V20.4z M127.2,23.6h13.4V22h-13.4V23.6z M127.2,26.8
	h13.4v-1.6h-13.4V26.8z"/>
<path class="st1" d="M152.8,23.2c-1,3.5-2,6.2-3.6,9.8l-2-2.5c2.1-4.1,2.9-7.5,3.3-9L152.8,23.2z M148.6,14.9
	c1.5,0.7,2.5,1.2,4.1,2.6l-1.5,2.4c-1-0.9-1.9-1.6-3.9-2.6L148.6,14.9z M149.8,7.2c1.1,0.5,2.9,1.7,4,2.6l-1.5,2.5
	c-1.6-1.4-2.3-1.9-3.8-2.8L149.8,7.2z M171.6,10.4H166c-0.1,0.3-0.7,2-0.8,2.4h5.4v11.2h-5v7.1c0,2.3-2.2,2.3-2.3,2.3h-3.4l-0.3-2.8
	h2.4c0.8,0,1-0.2,1-0.8v-5.9h-4.7V12.7h4.2c0.5-1.1,0.6-1.7,0.8-2.4h-6.4v9c0,2.4-0.3,9.1-3.4,13.9l-2.2-2c1-1.4,3.1-4.7,3.1-12.3
	V7.8h17.2V10.4z M161.5,26c-0.9,2.2-2.1,4.4-4.2,6.4l-1.9-1.9c2.4-1.9,3.4-4.4,3.8-5.5L161.5,26z M160.6,17.3h7.6V15h-7.6V17.3z
	 M160.6,21.6h7.6v-2.3h-7.6V21.6z M169.9,32.4c-1.5-2.1-2.3-3.9-3-6.6l2.3-0.9c1,3.1,2.1,4.6,2.6,5.5L169.9,32.4z"/>
<path class="st1" d="M174.1,7.8h9.8v9.6h-7.2v16h-2.5V7.8z M176.7,11.6h4.7V9.9h-4.7V11.6z M176.7,15.2h4.7v-1.8h-4.7V15.2z
	 M181.3,24.3c0-0.2,0-0.3,0-0.5v-2.5h-2.8V19h13.6v2.3h-2.5v3h3v2.3h-3v6.3h-2.4v-6.3h-3.7c-0.3,1.5-1.1,4.3-3.7,6.2l-1.7-2
	c0.8-0.7,2.3-2,2.8-4.2h-3v-2.3H181.3z M187.1,21.4h-3.4v3h3.4V21.4z M186.5,7.8h9.9v23.2c0,0.5,0,2.4-1.9,2.4h-3.6l-0.5-2.9h2.9
	c0.4,0,0.6-0.2,0.6-0.6V17.4h-7.3V7.8z M189,11.6h4.8V9.9H189V11.6z M189,15.2h4.8v-1.8H189V15.2z"/>
<path class="st1" d="M222.8,10.5c-0.5,0.7-1.5,2-3.4,4c1.6,1,2.8,1.6,3.9,2.1l-1,2.7c-1-0.5-2-1-3.7-2.1V19h-3.3v3.2h7v2.7h-7v4.5
	c0,0.6,0.3,0.7,0.7,0.7h3.3c1.1,0,1.1-0.7,1.3-3.4l2.6,0.4c-0.4,4.2-0.6,5.8-2.8,5.8h-5.4c-0.8,0-2.3,0-2.3-1.9v-6h-4
	c-0.8,5-4.4,7.4-8.4,8.5l-1.3-2.9c4-0.5,6.7-3,7.1-5.6h-6.3v-2.7h6.5V19h-2.9v-1.7c-1.6,1.1-2.6,1.6-3.4,2l-1.3-2.7
	c0.8-0.3,2.2-0.8,4.4-2.3c-0.1-0.1-1.5-1.5-3-2.8l1.5-1.5h-0.2V7.7h11.1c0.4,0.7,0.8,1.5,1.7,2.5c2-2,2.2-2.3,3-3.3l2.1,1.4
	c-1,1.3-2.2,2.5-3.3,3.7c0.5,0.4,0.8,0.7,1.5,1.2c2.1-2.1,2.5-2.6,3.5-3.9L222.8,10.5z M202.1,10.1c1.3,1,2.9,2.6,3.1,2.7
	c1.4-1.2,2.1-1.9,2.7-2.7H202.1z M217.2,16.3c-3-2-5.2-4.7-6.4-6.1c-0.9,1.2-2.5,3.4-6.2,6.1H217.2z M208.8,22.2h3.8V19h-3.8V22.2z"
	/>
<path class="st1" d="M237.3,14c-0.7,1.9-1.2,2.7-1.7,3.6l-2.6-1.6c0.2-0.3,0.5-0.7,0.7-1.1h-3.1v2.3c0.9,1.7,2.3,3.4,3.5,4.8
	l-1.6,2.5c-0.8-1-1.2-1.8-1.9-3.2v12.1h-2.4V20.3c-0.7,2.5-1.7,5-3,7.1l-1.2-3.6c2-3,3.2-6.5,3.9-9.1h-3.3V12h3.7V6.9h2.4V12h3.1
	v2.8c0.7-1.2,1.4-2.7,2.4-6.9l2.7,0.4c-0.2,0.8-0.4,1.7-0.7,2.9h2V6.9h2.5v4.3h5.4V14h-5.4v4h5.9v2.8h-5.1c1.8,3.6,3.2,5.3,5.5,7.4
	l-1.3,3.1c-1-1-3.4-3.4-5-7.3v9.5h-2.5v-9.4c-1.6,2.8-3.2,4.9-5.8,7l-1.7-2.6c2.3-1.7,4.8-4,6.8-7.7h-5.6v-2.8h6.3v-4H237.3z"/>
<path class="st1" d="M271.3,11.4h2.8v2.8h-7.7c0.1,2.1,0.4,7.9,2,12.1c0.1,0.3,1.3,3.4,2.4,3.4c0.9,0,1.3-2.9,1.4-4.2l2.4,1.5
	c-0.4,2.2-1,6.3-3.4,6.3c-1.5,0-6.8-1.9-7.4-19.1h-13.5v-2.8h13.5c0-0.6-0.1-3.8-0.1-4.5h2.7c0,1.7,0,3.4,0,4.5h4.6
	c-1.2-1-2.3-1.7-3.8-2.5l1.5-2.2c1.3,0.7,2.9,1.7,4.1,2.7L271.3,11.4z M250.2,29.5c1.4-0.2,4.8-0.7,5.4-0.8v-8.2h-5v-2.8H263v2.8
	h-4.7v7.8c3-0.5,4.5-0.8,5.5-1V30c-4.2,1-10.1,2-13.2,2.4L250.2,29.5z"/>
<path class="st1" d="M281.1,15.7c-2,1.4-3.1,1.9-4.2,2.4l-1.5-2.7c4.1-1.6,8.9-5.1,11.1-8.7h3c1.9,3.2,6,6.4,11.1,8.6l-1.6,2.8
	c-1.1-0.6-2.6-1.4-4.1-2.5v1.6h-13.6V15.7z M296.4,33.6c-0.3-0.6-0.5-0.9-1.1-1.9c-3.5,0.4-9.3,0.8-18.2,1l-0.4-2.9
	c0.5,0,2.9,0,3.7,0c0.7-1.4,1.9-4.5,2.5-6.6h-6.6v-2.7h23.1v2.7h-13.4c-0.9,2.3-1.9,4.7-2.7,6.5c4.8-0.1,5.3-0.1,10.5-0.4
	c-1.3-1.8-1.9-2.8-3-4l2.2-1.5c0.8,0.8,3.7,4,6,8.1L296.4,33.6z M293.3,14.6c-2.8-2.1-4.7-4.6-5.3-5.4c-1,1.4-2.4,3.1-5.3,5.4H293.3
	z"/>
<path class="st1" d="M308.1,33.4h-2.6V22.5c-1.5,1.6-2.3,2.1-3.1,2.6l-1.1-2.9c3.3-2.1,5.8-5.2,7-8.2h-6.6v-2.8h3.9V6.8h2.6v4.4h3
	V14c-0.4,1.1-1,2.5-2.6,4.8c1.3,1.6,1.9,2.1,3.6,3.5l-1.2,2.7c-1.2-1.1-1.9-1.8-2.8-3V33.4z M316.8,6.8h2.7v8h5.5v3h-5.5v11.6h6.1v3
	h-15.2v-3h6.5V17.9h-5.4v-3h5.4V6.8z"/>
<rect class="st2" width="330" height="42"/>
</svg>
